Coordinates
version=1
nRows=17
nColumns=24
inDegrees=yes

Units are S.I. units (second, meters, Newtons, ...)
Angles are in degrees.

endheader
time	pelvis_tilt	pelvis_list	pelvis_rotation	pelvis_tx	pelvis_ty	pelvis_tz	hip_flexion_r	hip_adduction_r	hip_rotation_r	knee_angle_r	ankle_angle_r	subtalar_angle_r	mtp_angle_r	hip_flexion_l	hip_adduction_l	hip_rotation_l	knee_angle_l	ankle_angle_l	subtalar_angle_l	mtp_angle_l	lumbar_extension	lumbar_bending	lumbar_rotation
      5.69000000	      6.65918249	      2.53635655	      6.70224072	      0.01808031	      0.88288220	      0.25763721	     20.90836710	     -2.49964462	     -4.56530325	    -15.85137316	     12.77903159	      6.13407331	      0.00000000	    -27.97558752	      3.77944789	      2.85044790	    -17.28960460	     10.97549995	     -0.82962960	      0.00000000	    -29.96207396	      1.94694775	    -11.51907164
      5.70000000	      6.70792059	      2.21470800	      6.87705641	      0.03593969	      0.88037611	      0.25852009	     21.84534194	     -2.13682073	     -4.77381451	    -19.33927871	     12.97767995	      5.82258669	      0.00000000	    -26.70311046	      2.88798970	      1.03020821	    -21.04477933	      9.37191240	      0.86699602	      0.00000000	    -29.57115487	      2.39880632	    -11.49331034
      5.71000000	      6.90188684	      1.77267417	      7.09983624	      0.05361982	      0.87838204	      0.25930844	     22.50018494	     -1.67180295	     -5.18401434	    -22.62516648	     13.45701835	      5.57766222	      0.00000000	    -25.33012893	      1.81275472	     -0.31833660	    -25.02359926	      6.89647527	      1.86311441	      0.00000000	    -29.37030187	      3.01500221	    -11.40533023
      5.72000000	      7.19283606	      1.23348244	      7.40306170	      0.07095882	      0.87686443	      0.25989496	     22.88984703	     -1.16197566	     -5.84849978	    -25.64758522	     14.36926229	      5.50106591	      0.00000000	    -23.79077358	      0.62194860	     -1.11204190	    -29.21777471	      3.66662478	      2.27274362	      0.00000000	    -29.32886814	      3.77517465	    -11.31344650
      5.73000000	      7.55602355	      0.60708020	      7.83164583	      0.08785965	      0.87580211	      0.26020822	     22.98508509	     -0.63464985	     -6.77061804	    -28.32341823	     15.70658945	      5.68396347	      0.00000000	    -22.07041666	     -0.65323257	     -1.37280903	    -33.56627992	     -0.07860662	      2.20795183	      0.00000000	    -29.42275264	      4.67715877	    -11.25089639
      5.74000000	      7.95069146	     -0.13936532	      8.38291135	      0.10431004	      0.87514667	      0.26028023	     22.76319841	     -0.03081570	     -7.88923447	    -30.51469737	     17.30284271	      5.98565928	      0.00000000	    -20.13983207	     -2.03697067	     -1.26075511	    -38.01049578	     -3.85791253	      1.98675635	      0.00000000	    -29.59673350	      5.74093707	    -11.18433637
      5.75000000	      8.27966768	     -0.97580584	      9.07892408	      0.12030102	      0.87481138	      0.26011283	     22.30138008	      0.62135745	     -9.17525058	    -32.15932396	     19.03786458	      6.41387259	      0.00000000	    -17.90254373	     -3.46573268	     -0.77598967	    -42.50314976	     -7.15607281	      1.78473384	      0.00000000	    -29.71485770	      6.91468271	    -11.07476886
      5.76000000	      8.51050219	     -1.86095134	      9.88041007	      0.13586617	      0.87482501	      0.25978872	     21.63178661	      1.31445068	    -10.55867204	    -33.22440089	     20.75693342	      6.91187440	      0.00000000	    -15.35624078	     -4.86960884	     -0.02731261	    -46.95001923	     -9.42744381	      1.72258495	      0.00000000	    -29.73416820	      8.12506144	    -10.93560931
      5.77000000	      8.64112631	     -2.72634289	     10.74005272	      0.15106047	      0.87528792	      0.25936162	     20.76978262	      2.01631444	    -11.95255543	    -33.72052168	     22.34370171	      7.42852846	      0.00000000	    -12.55384949	     -6.14497797	      0.90332336	    -51.23970632	    -10.27189389	      1.84012314	      0.00000000	    -29.64346828	      9.28285432	    -10.75512764
      5.78000000	      8.68651901	     -3.51342485	     11.59541691	      0.16593132	      0.87631733	      0.25889215	     19.73503663	      2.70053927	    -13.28781192	    -33.70427011	     23.72110960	      7.93354174	      0.00000000	     -9.60868607	     -7.18265554	      1.96006212	    -55.22126730	     -9.68328729	      2.05124893	      0.00000000	    -29.47551435	     10.30374858	    -10.52481271
      5.79000000	      8.65701220	     -4.15157618	     12.39715149	      0.18055718	      0.87802029	      0.25839349	     18.53535653	      3.33118419	    -14.44113889	    -33.22975726	     24.85773047	      8.40744801	      0.00000000	     -6.63552438	     -7.88424184	      3.06225206	    -58.75457708	     -8.10315842	      2.20128569	      0.00000000	    -29.23888887	     11.11186475	    -10.27398004
      5.80000000	      8.62576997	     -4.59885055	     13.09293497	      0.19496034	      0.88050691	      0.25789836	     17.13659148	      3.88812098	    -15.38125871	    -32.38972915	     25.70521508	      8.74377356	      0.00000000	     -3.78227405	     -8.21732436	      4.10272384	    -61.75548082	     -6.21562568	      2.14277936	      0.00000000	    -29.05570642	     11.66666913	     -9.95778948
      5.81000000	      8.56805710	     -4.82637791	     13.62711820	      0.20925230	      0.88371683	      0.25747521	     15.58481525	      4.36726594	    -15.95893241	    -31.24765027	     26.30037751	      8.95229326	      0.00000000	     -1.08611188	     -8.16586603	      4.98332796	    -64.18396768	     -4.32969852	      1.87683906	      0.00000000	    -28.88906205	     11.91501147	     -9.62475810
      5.82000000	      8.48164447	     -4.83709526	     13.95590077	      0.22349514	      0.88753465	      0.25716455	     13.91310904	      4.75804229	    -16.13951573	    -29.87445108	     26.64994076	      8.98652994	      0.00000000	      1.40651004	     -7.77701090	      5.61361820	    -66.02952976	     -2.52814364	      1.54428649	      0.00000000	    -28.74599570	     11.85577243	     -9.25882410
      5.83000000	      8.41464425	     -4.66435707	     14.11897728	      0.23769016	      0.89184853	      0.25691155	     12.09713087	      5.06691549	    -15.98992309	    -28.31833424	     26.78729245	      8.84219231	      0.00000000	      3.63416758	     -7.13842487	      6.01265504	    -67.30966348	     -0.82207410	      1.22685316	      0.00000000	    -28.67657605	     11.56432604	     -8.86478981
      5.84000000	      8.30069096	     -4.29699074	     14.03475469	      0.25194539	      0.89644659	      0.25685248	     10.21930531	      5.26276544	    -15.39939255	    -26.62478185	     26.74701282	      8.46140058	      0.00000000	      5.61837237	     -6.27385932	      6.08791907	    -68.02852784	      0.91370915	      1.12610423	      0.00000000	    -28.60260570	     10.97088630	     -8.39817263
      5.85000000	      8.19815412	     -3.86416533	     13.79882630	      0.26625056	      0.90118187	      0.25688987	      8.22344331	      5.46121070	    -14.45492992	    -24.73783908	     26.44175491	      7.75097303	      0.00000000	      7.38248929	     -5.36304007	      5.93692885	    -68.26689108	      2.54821910	      1.07098168	      0.00000000	    -28.54934774	     10.27757623	     -7.85830739
